<svg xmlns="http://www.w3.org/2000/svg" version="1.1" xmlns:xlink="http://www.w3.org/1999/xlink" xmlns:svgjs="http://svgjs.dev/svgjs" width="2000" height="1992" viewBox="0 0 2000 1992"><g transform="matrix(1,0,0,1,-3.558718861209968,0)"><svg viewBox="0 0 281 280" data-background-color="#efefef" preserveAspectRatio="xMidYMid meet" height="1992" width="2000" xmlns="http://www.w3.org/2000/svg" xmlns:xlink="http://www.w3.org/1999/xlink"><g id="tight-bounds" transform="matrix(1,0,0,1,0.5,0)"><svg viewBox="0 0 280 280" height="280" width="280"><g><svg viewBox="0 0 280 280" height="280" width="280"><g><svg viewBox="0 0 280 280" height="280" width="280"><g id="textblocktransform"><svg viewBox="0 0 280 280" height="280" width="280" id="textblock"><g><svg viewBox="0 0 280 280" height="280" width="280"><g transform="matrix(1,0,0,1,74.02770035959406,74.00336708925556)"><svg viewBox="0 0 131.94459928081187 131.99326582148888" height="131.99326582148888" width="131.94459928081187"><g id="icon-0"><svg xmlns="http://www.w3.org/2000/svg" xmlns:xlink="http://www.w3.org/1999/xlink" version="1.1" x="0" y="0" viewBox="0.01820386256780493 -0.00011550675532945309 99.96324499174288 100.00011550675534" enable-background="new 0 0 100 100" xml:space="preserve" id="jxe-0" width="131.94459928081187" height="131.99326582148888" class="icon-jxe-0" data-fill-palette-color="accent"><g fill="#f9744c" data-fill-palette-color="accent"><path d="M73.428 5.851A49.933 49.933 0 0 0 5.846 26.566C-7.075 50.918 2.212 81.241 26.562 94.161 33.768 97.979 41.848 100 49.953 100 68.526 100 85.462 89.826 94.157 73.444 107.077 49.095 97.778 18.77 73.428 5.851M28.003 91.439C5.156 79.307-3.564 50.855 8.556 28.008A46.87 46.87 0 0 1 50.039 3.079C57.638 3.079 65.224 4.975 71.987 8.571 94.836 20.69 103.556 49.143 91.435 71.991 83.269 87.375 67.38 96.921 49.953 96.921 42.353 96.921 34.766 95.024 28.003 91.439" fill="#f9744c" data-fill-palette-color="accent"></path><path d="M86.386 29.178A1.52 1.52 0 0 0 84.291 28.612 1.54 1.54 0 0 0 83.711 30.707C83.823 30.916 83.947 31.113 84.058 31.322 93.64 48.787 88.258 70.994 71.618 82.13 63.18 87.783 53.094 89.876 43.13 88.054 42.896 88.016 42.674 87.981 42.44 87.93A1.56 1.56 0 0 0 40.629 89.137C40.457 89.975 40.999 90.787 41.836 90.961 44.607 91.514 47.378 91.786 50.138 91.786 58.342 91.786 66.358 89.358 73.342 84.691 91.508 72.521 97.236 48.135 86.386 29.178" fill="#f9744c" data-fill-palette-color="accent"></path><path d="M25.799 80.183A37.3 37.3 0 0 1 20.909 75.501 37 37 0 0 1 17.83 71.498L16.549 72.361 17.756 71.375C5.969 53.639 10.772 29.561 28.459 17.71A38.84 38.84 0 0 1 46.762 11.281C46.959 11.256 47.157 11.244 47.354 11.231A1.523 1.523 0 0 0 48.782 9.593 1.54 1.54 0 0 0 47.144 8.164 41.8 41.8 0 0 0 26.747 15.147C7.656 27.946 2.458 53.935 15.133 72.989A4 4 0 0 1 15.268 73.211 42 42 0 0 0 18.594 77.534 41 41 0 0 0 24.383 82.989C24.654 83.212 24.987 83.309 25.32 83.309 25.788 83.309 26.231 83.1 26.539 82.718A1.556 1.556 0 0 0 26.268 80.551 16 16 0 0 1 25.799 80.183" fill="#f9744c" data-fill-palette-color="accent"></path><path d="M64.449 13.917A38.6 38.6 0 0 1 76.223 21.32C76.518 21.591 76.901 21.725 77.27 21.725 77.69 21.725 78.096 21.554 78.404 21.221A1.53 1.53 0 0 0 78.305 19.052 41.5 41.5 0 0 0 65.594 11.059 1.54 1.54 0 0 0 63.585 11.91C63.278 12.71 63.66 13.597 64.449 13.917" fill="#f9744c" data-fill-palette-color="accent"></path></g><path d="M42.932 69.048C42.612 67.089 41.134 65.525 39.299 65.02 39.275 64.639 39.25 64.257 39.237 63.875A36 36 0 0 1 39.237 62.261C39.262 61.696 39.299 61.127 39.336 60.562 39.447 59.378 39.62 58.246 39.841 57.187 40.062 56.189 40.358 55.155 40.703 54.207L41.627 52.063C41.75 51.817 41.861 51.632 41.935 51.497 41.935 51.484 42.058 51.287 42.071 51.274 45.322 45.955 44.115 39.143 39.472 35.251 39.004 34.856 38.512 34.5 37.97 34.167A12.4 12.4 0 0 0 31.466 32.319C27.106 32.319 23.14 34.548 20.849 38.257 17.634 43.517 18.78 50.426 23.485 54.319A1 1 0 0 0 23.608 54.418L23.707 54.504C23.818 54.615 23.99 54.762 24.2 54.971L25.752 56.684C26.368 57.459 26.983 58.334 27.525 59.234A28 28 0 0 1 29.089 62.251C29.31 62.78 29.532 63.311 29.73 63.828 29.926 64.358 30.099 64.862 30.247 65.368 30.259 65.405 30.271 65.429 30.284 65.467L29.78 67.116A5 5 0 0 0 28.425 71.453C28.425 71.476 28.437 71.501 28.437 71.526 28.832 73.681 30.617 75.369 32.797 75.628 32.994 75.64 33.192 75.653 33.388 75.653 33.659 75.653 33.93 75.639 34.201 75.591A5 5 0 0 0 36.406 74.654 5.04 5.04 0 0 0 38.796 74.828 5.2 5.2 0 0 0 40.138 74.408 5.07 5.07 0 0 0 42.932 69.048M38.805 71.622A1.8 1.8 0 0 1 38.288 71.794C37.808 71.868 37.328 71.77 36.933 71.511A1.556 1.556 0 0 0 34.901 71.845C34.606 72.225 34.174 72.473 33.707 72.546 33.522 72.583 33.337 72.583 33.153 72.558A1.943 1.943 0 0 1 32.66 68.826L32.783 68.778A1.53 1.53 0 0 0 33.829 67.015 23 23 0 0 0 33.189 64.467 29 29 0 0 0 32.61 62.741 68 68 0 0 0 31.908 61.016C31.859 60.893 31.797 60.783 31.736 60.672V60.66A28 28 0 0 0 30.159 57.641 28 28 0 0 0 28.139 54.746L26.575 52.985 26.341 52.752A14 14 0 0 0 25.737 52.196L25.478 51.975C21.918 49.018 21.057 43.822 23.483 39.868A9.3 9.3 0 0 1 31.464 35.396C33.189 35.396 34.876 35.876 36.354 36.788A9 9 0 0 1 38.46 38.562C41.121 41.568 41.649 46.063 39.482 49.598 39.47 49.621 39.396 49.733 39.383 49.758L39.284 49.917C39.185 50.091 39.038 50.348 38.89 50.644 38.828 50.755 38.779 50.866 38.717 50.99L38.138 52.307C38.126 52.32 38.089 52.43 38.076 52.455L37.805 53.144A29 29 0 0 0 36.832 56.532 31 31 0 0 0 36.266 60.3 50 50 0 0 0 36.155 62.16C36.143 62.775 36.143 63.38 36.155 63.959 36.193 64.846 36.254 65.732 36.377 66.595 36.487 67.37 37.153 67.937 37.941 67.925L38.003 66.385 38.077 67.925C38.976 67.975 39.74 68.652 39.888 69.55A1.925 1.925 0 0 1 38.805 71.622" fill="#f9744c" data-fill-palette-color="accent"></path><path d="M57.133 59.588A7.9 7.9 0 0 0 60.925 63.394 8.05 8.05 0 0 0 65.607 64.035 8 8 0 0 0 68.39 64.541C69.167 64.541 69.942 64.417 70.694 64.195A7.9 7.9 0 0 0 74.77 61.277 7.95 7.95 0 0 0 79.894 57.298 7.88 7.88 0 0 0 80.252 50.658 7.9 7.9 0 0 0 80.165 46.346 7.95 7.95 0 0 0 76.507 41.79 7.7 7.7 0 0 0 74.795 41.063 8.6 8.6 0 0 0 73.021 39.781 7.98 7.98 0 0 0 67.996 38.968 7.86 7.86 0 0 0 62.923 38.822 7.5 7.5 0 0 0 60.94 39.746 7.88 7.88 0 0 0 54.67 43.909 7.75 7.75 0 0 0 53.759 48.135 7.95 7.95 0 0 0 52.848 54.724 7.95 7.95 0 0 0 57.133 59.588M57.379 45.35A4.87 4.87 0 0 1 61.505 42.788C61.825 42.788 62.121 42.677 62.38 42.493A4.4 4.4 0 0 1 63.82 41.765 4.83 4.83 0 0 1 67.22 41.975C67.528 42.122 67.872 42.146 68.204 42.073A4.79 4.79 0 0 1 72.861 43.502C73.07 43.725 73.352 43.884 73.647 43.946 74.005 44.033 74.362 44.155 74.683 44.315A4.8 4.8 0 0 1 77.157 50.251C77.021 50.646 77.047 51.076 77.231 51.447A4.84 4.84 0 0 1 77.17 55.856C76.455 57.222 75.149 58.134 73.609 58.368A1.52 1.52 0 0 0 72.512 59.096 4.88 4.88 0 0 1 69.791 61.251 4.9 4.9 0 0 1 66.392 61.028 1.4 1.4 0 0 0 65.763 60.893 2 2 0 0 0 65.406 60.929 4.74 4.74 0 0 1 62.783 60.819 6 6 0 0 1 62.019 60.499 4.85 4.85 0 0 1 59.752 57.876 1.57 1.57 0 0 0 58.816 56.952 4.82 4.82 0 0 1 55.786 53.811 4.85 4.85 0 0 1 56.574 49.476C56.821 49.143 56.931 48.724 56.87 48.318A4.88 4.88 0 0 1 57.379 45.35" fill="#f9744c" data-fill-palette-color="accent"></path></svg></g></svg></g><g id="text-0"><path d="M28.77 105.567l-1.038 3.119-27.732-9.23 1.038-3.118 12.849 4.276c-0.683-0.959-1.104-1.998-1.265-3.118-0.165-1.128-0.065-2.239 0.299-3.332v0c0.411-1.235 1.095-2.275 2.052-3.123 0.957-0.847 2.117-1.406 3.479-1.677 1.364-0.278 2.865-0.144 4.503 0.401v0l9.97 3.318-1.038 3.119-9.538-3.175c-1.363-0.454-2.705-0.445-4.027 0.025-1.322 0.47-2.229 1.447-2.723 2.93v0c-0.405 1.215-0.327 2.446 0.232 3.691 0.553 1.243 1.658 2.14 3.314 2.691v0z" fill="#d94e28" data-fill-palette-color="primary"></path><path d="M40.712 80.202v0c-0.891 1.525-2.072 2.706-3.543 3.54-1.477 0.832-3.055 1.253-4.732 1.265-1.675 0.021-3.267-0.409-4.775-1.289v0c-1.525-0.891-2.688-2.069-3.487-3.535-0.808-1.464-1.21-3.041-1.206-4.733-0.002-1.695 0.443-3.306 1.334-4.831v0c0.901-1.543 2.087-2.724 3.557-3.545 1.465-0.823 3.035-1.246 4.71-1.266 1.67-0.024 3.267 0.409 4.792 1.299v0c1.508 0.881 2.664 2.056 3.469 3.525 0.811 1.473 1.22 3.051 1.229 4.735 0.003 1.68-0.447 3.292-1.348 4.835zM38.031 78.636v0c0.595-1.019 0.882-2.085 0.861-3.198-0.018-1.119-0.3-2.166-0.847-3.142-0.547-0.975-1.327-1.759-2.34-2.35v0c-1.019-0.595-2.087-0.891-3.206-0.889-1.118 0.003-2.169 0.271-3.153 0.806-0.974 0.532-1.759 1.307-2.354 2.326v0c-0.595 1.019-0.885 2.083-0.869 3.194 0.018 1.119 0.3 2.166 0.847 3.141 0.547 0.975 1.33 1.76 2.349 2.356v0c1.013 0.592 2.079 0.886 3.197 0.883 1.118-0.003 2.169-0.271 3.153-0.806 0.98-0.529 1.768-1.302 2.362-2.321z" fill="#d94e28" data-fill-palette-color="primary"></path><path d="M51.176 65.23l-2.28 2.367-13.157-12.669 2.112-2.193 1.879 1.81c-0.251-1.168-0.198-2.297 0.158-3.386 0.351-1.084 0.92-2.034 1.706-2.85v0c0.861-0.894 1.857-1.511 2.99-1.852 1.138-0.346 2.298-0.384 3.482-0.116v0c-0.296-1.277-0.25-2.511 0.137-3.7 0.383-1.195 1.009-2.243 1.879-3.147v0c0.959-0.996 2.071-1.679 3.337-2.051 1.261-0.377 2.548-0.406 3.861-0.088 1.313 0.319 2.539 1.027 3.681 2.127v0l7.787 7.499-2.28 2.368-7.503-7.226c-1.2-1.155-2.438-1.692-3.714-1.611-1.272 0.086-2.338 0.576-3.198 1.47v0c-0.533 0.554-0.926 1.21-1.179 1.967-0.253 0.758-0.276 1.555-0.069 2.391 0.216 0.835 0.747 1.66 1.591 2.473v0l7.569 7.289-2.279 2.367-7.504-7.225c-0.83-0.8-1.677-1.296-2.539-1.49-0.857-0.189-1.672-0.154-2.444 0.103-0.768 0.262-1.418 0.67-1.951 1.224v0c-0.524 0.544-0.91 1.193-1.157 1.946-0.253 0.758-0.281 1.56-0.084 2.405 0.207 0.845 0.74 1.681 1.6 2.509v0z" fill="#d94e28" data-fill-palette-color="primary"></path><path d="M81.78 39.533v0c-1.625 1-3.303 1.534-5.035 1.603-1.741 0.066-3.361-0.302-4.861-1.105-1.505-0.799-2.732-1.968-3.678-3.507v0c-0.905-1.47-1.373-3.022-1.406-4.657-0.036-1.64 0.332-3.185 1.102-4.634 0.762-1.451 1.869-2.623 3.322-3.517v0c1.435-0.884 2.958-1.349 4.567-1.398 1.615-0.052 3.135 0.283 4.561 1.005 1.42 0.725 2.583 1.823 3.487 3.292v0l0.7 1.137-10.163 6.256c-0.448 0.276-0.918 0.541-1.41 0.796-0.486 0.252-0.975 0.481-1.464 0.688v0c1.041 1.267 2.379 2.039 4.014 2.315 1.638 0.282 3.192-0.029 4.662-0.934v0c0.988-0.608 1.766-1.396 2.334-2.362 0.571-0.977 0.886-1.994 0.947-3.054v0l2.737 2.71c-0.366 1.065-0.926 2.058-1.68 2.982-0.75 0.929-1.662 1.724-2.736 2.384zM70.258 33.645v0c0.835-0.728 1.729-1.385 2.682-1.971v0l5.159-3.176c0.379-0.233 0.764-0.45 1.154-0.651 0.387-0.207 0.781-0.41 1.182-0.608v0c-0.987-1.063-2.208-1.689-3.663-1.879-1.449-0.193-2.788 0.089-4.016 0.845v0c-1.263 0.778-2.113 1.879-2.55 3.304-0.431 1.421-0.414 2.8 0.052 4.136z" fill="#d94e28" data-fill-palette-color="primary"></path><path d="M108.175 27.489l-3.146 0.953-5.292-17.482 2.914-0.882 0.97 3.204c0.307-1.22 0.884-2.293 1.731-3.218 0.847-0.926 1.977-1.602 3.39-2.03v0l1.749 2.915c-0.409-0.003-0.856 0.069-1.34 0.216v0c-1.633 0.494-2.785 1.41-3.459 2.748-0.679 1.34-0.728 2.971-0.145 4.894v0z" fill="#d94e28" data-fill-palette-color="primary"></path><path d="M128.544 24.007v0c-1.892 0.247-3.642 0.047-5.249-0.601-1.615-0.653-2.942-1.653-3.981-2.999-1.046-1.346-1.686-2.915-1.919-4.707v0c-0.223-1.712-0.015-3.32 0.625-4.824 0.639-1.511 1.607-2.77 2.904-3.775 1.289-1.011 2.78-1.627 4.471-1.848v0c1.671-0.218 3.251-0.019 4.739 0.596 1.494 0.614 2.744 1.543 3.749 2.785 0.998 1.243 1.609 2.721 1.832 4.432v0l0.173 1.324-11.834 1.543c-0.521 0.068-1.059 0.118-1.612 0.149-0.547 0.03-1.086 0.04-1.618 0.028v0c0.431 1.582 1.335 2.835 2.713 3.756 1.379 0.928 2.924 1.281 4.636 1.058v0c1.15-0.15 2.182-0.55 3.097-1.199 0.921-0.657 1.626-1.456 2.115-2.398v0l1.386 3.593c-0.77 0.821-1.688 1.498-2.754 2.032-1.065 0.54-2.223 0.892-3.473 1.055zM120.446 13.915v0c1.06-0.322 2.144-0.555 3.254-0.699v0l6.007-0.784c0.441-0.058 0.881-0.098 1.32-0.121 0.438-0.03 0.88-0.054 1.327-0.071v0c-0.465-1.374-1.322-2.445-2.571-3.214-1.243-0.769-2.579-1.061-4.01-0.874v0c-1.471 0.192-2.698 0.848-3.68 1.969-0.976 1.12-1.525 2.385-1.647 3.794z" fill="#d94e28" data-fill-palette-color="primary"></path><path d="M147.616 23.279v0c-0.936-0.036-1.93-0.252-2.981-0.65-1.051-0.391-1.945-1.018-2.682-1.883v0l1.046-3.553c0.53 0.978 1.232 1.761 2.107 2.347 0.868 0.593 1.811 0.909 2.828 0.947v0c0.97 0.037 1.71-0.175 2.221-0.634 0.503-0.453 0.768-1.027 0.794-1.721v0c0.03-0.788-0.208-1.374-0.713-1.757-0.505-0.39-0.957-0.664-1.355-0.821v0l-2.431-1.033c-0.438-0.199-0.963-0.489-1.576-0.87-0.62-0.374-1.15-0.907-1.589-1.599-0.44-0.685-0.639-1.566-0.598-2.644v0c0.037-0.97 0.303-1.854 0.799-2.651 0.496-0.791 1.18-1.409 2.054-1.855 0.867-0.446 1.88-0.647 3.039-0.603v0c0.91 0.035 1.857 0.236 2.841 0.603 0.978 0.361 1.8 0.939 2.465 1.733v0l-1.056 3.553c-0.451-0.908-1.081-1.64-1.89-2.197-0.815-0.564-1.668-0.863-2.557-0.897v0c-0.835-0.032-1.498 0.179-1.987 0.633-0.496 0.447-0.756 0.973-0.779 1.58v0c-0.018 0.485 0.127 0.929 0.435 1.332 0.309 0.396 0.782 0.728 1.42 0.995v0l2.43 1.034c0.445 0.179 0.988 0.466 1.627 0.861 0.646 0.389 1.213 0.937 1.699 1.643 0.479 0.713 0.696 1.656 0.651 2.829v0c-0.062 1.644-0.686 2.953-1.869 3.926-1.184 0.967-2.648 1.418-4.393 1.352z" fill="#d94e28" data-fill-palette-color="primary"></path><path d="M165.446 25.21l-3.231-0.602 2.846-15.261-4.076-0.76 0.503-2.695 4.165 0.777 1.119-5.995 3.052 0.57-1.119 5.995 4.464 0.832-0.502 2.694-4.375-0.815z" fill="#d94e28" data-fill-palette-color="primary"></path><path d="M182.344 30.545v0c-1.568-0.56-2.862-1.469-3.88-2.727-1.019-1.258-1.673-2.694-1.963-4.308-0.299-1.61-0.158-3.228 0.421-4.854v0c0.58-1.626 1.497-2.97 2.75-4.033 1.246-1.066 2.662-1.763 4.247-2.093 1.585-0.329 3.162-0.214 4.73 0.346v0c1.181 0.421 2.216 1.041 3.106 1.86 0.885 0.81 1.569 1.741 2.052 2.794v0l0.806-2.258 2.867 1.023-6.139 17.203-2.867-1.023 0.809-2.267c-1.036 0.496-2.154 0.781-3.354 0.854-1.209 0.077-2.404-0.095-3.585-0.517zM183.747 27.878v0c1.092 0.39 2.18 0.47 3.264 0.241 1.084-0.229 2.048-0.704 2.893-1.427 0.851-0.72 1.474-1.632 1.868-2.737v0c0.397-1.111 0.493-2.215 0.29-3.311-0.197-1.094-0.642-2.072-1.336-2.936-0.696-0.857-1.591-1.48-2.683-1.87v0c-1.092-0.39-2.179-0.473-3.261-0.251-1.084 0.229-2.048 0.704-2.893 1.427-0.851 0.72-1.475 1.636-1.871 2.747v0c-0.394 1.105-0.49 2.205-0.287 3.301 0.197 1.094 0.642 2.072 1.336 2.936 0.694 0.863 1.587 1.49 2.68 1.88z" fill="#d94e28" data-fill-palette-color="primary"></path><path d="M203.37 40.881v0c-1.093-0.655-1.954-1.546-2.585-2.671-0.625-1.122-0.922-2.381-0.894-3.779 0.038-1.4 0.496-2.832 1.373-4.295v0l5.4-9.002 2.819 1.69-5.166 8.612c-0.742 1.237-1.028 2.552-0.856 3.945 0.171 1.392 0.928 2.491 2.269 3.295v0c1.093 0.655 2.31 0.847 3.653 0.575 1.337-0.275 2.454-1.162 3.352-2.659v0l5.213-8.691 2.818 1.691-9.395 15.663-2.61-1.565 1.519-2.533c-1.133 0.578-2.302 0.836-3.507 0.774-1.205-0.062-2.339-0.412-3.403-1.05z" fill="#d94e28" data-fill-palette-color="primary"></path><path d="M219.488 52.189l-2.487-2.149 11.941-13.82 2.304 1.99-2.189 2.533c1.195-0.393 2.41-0.479 3.645-0.259 1.235 0.221 2.411 0.814 3.529 1.779v0l-1.529 3.037c-0.217-0.347-0.516-0.687-0.898-1.017v0c-1.291-1.115-2.681-1.599-4.172-1.453-1.495 0.143-2.9 0.974-4.213 2.495v0z" fill="#d94e28" data-fill-palette-color="primary"></path><path d="M232.85 66.784v0c-1.065-1.281-1.715-2.722-1.95-4.323-0.236-1.602-0.067-3.171 0.505-4.708 0.563-1.538 1.508-2.858 2.835-3.962v0c1.327-1.104 2.801-1.794 4.42-2.071 1.615-0.282 3.189-0.161 4.721 0.363 1.532 0.524 2.83 1.426 3.894 2.707v0c0.802 0.964 1.377 2.025 1.726 3.182 0.349 1.148 0.464 2.298 0.343 3.45v0l1.843-1.533 1.946 2.341-14.044 11.678-1.946-2.341 1.85-1.539c-1.145-0.101-2.252-0.425-3.321-0.974-1.079-0.549-2.02-1.306-2.822-2.27zM235.416 65.203v0c0.741 0.892 1.637 1.515 2.686 1.87 1.049 0.355 2.121 0.437 3.216 0.246 1.099-0.186 2.1-0.654 3.002-1.404v0c0.907-0.754 1.553-1.655 1.936-2.702 0.388-1.042 0.503-2.111 0.346-3.207-0.163-1.092-0.615-2.084-1.357-2.976v0c-0.741-0.892-1.634-1.517-2.678-1.876-1.049-0.355-2.121-0.437-3.216-0.246-1.099 0.186-2.102 0.656-3.01 1.411v0c-0.902 0.75-1.545 1.648-1.928 2.695-0.388 1.042-0.503 2.111-0.346 3.207 0.158 1.097 0.607 2.091 1.349 2.982z" fill="#d94e28" data-fill-palette-color="primary"></path><path d="M244.249 82.976l-1.565-2.89 16.063-8.695 1.449 2.677-2.597 1.406c1.266 0.073 2.404 0.447 3.412 1.12 1.011 0.664 1.81 1.539 2.398 2.624v0c0.619 1.144 0.911 2.355 0.874 3.632-0.037 1.277-0.422 2.506-1.157 3.685-0.731 1.185-1.855 2.189-3.373 3.01v0l-9.241 5.002-1.564-2.89 8.84-4.786c1.263-0.684 2.175-1.668 2.737-2.953 0.562-1.285 0.47-2.616-0.274-3.991v0c-0.61-1.127-1.56-1.912-2.851-2.356-1.285-0.447-2.695-0.255-4.23 0.577v0z" fill="#d94e28" data-fill-palette-color="primary"></path><path d="M254.405 106.314l-1.026-3.123 14.747-4.849-1.295-3.939 2.603-0.856 1.324 4.026 5.793-1.905 0.97 2.949-5.793 1.905 1.418 4.314-2.604 0.856-1.389-4.227z" fill="#d94e28" data-fill-palette-color="primary"></path><path d="M2.808 141.71c0-6.166 4.999-11.165 11.165-11.165 6.166 0 11.165 4.999 11.165 11.165 0 6.166-4.999 11.165-11.165 11.165-6.166 0-11.165-4.999-11.165-11.165z" fill="#d94e28" data-fill-palette-color="primary"></path><path d="M257.67 141.71c0-6.166 4.999-11.165 11.165-11.165 6.166 0 11.165 4.999 11.165 11.165 0 6.166-4.999 11.165-11.165 11.165-6.166 0-11.165-4.999-11.165-11.165z" fill="#d94e28" data-fill-palette-color="primary"></path></g><g id="text-1"><path d="M11.305 183.828l-1.068-3.194 28.323-9.47 1.068 3.194-13.13 4.39c1.15 0.355 2.135 0.943 2.956 1.763 0.822 0.82 1.419 1.79 1.794 2.908v0c0.421 1.26 0.501 2.53 0.24 3.812-0.263 1.275-0.868 2.444-1.813 3.507-0.948 1.056-2.259 1.864-3.935 2.425v0l-10.176 3.402-1.065-3.184 9.735-3.255c1.394-0.466 2.488-1.298 3.282-2.494 0.796-1.19 0.941-2.543 0.435-4.059v0c-0.415-1.24-1.232-2.197-2.453-2.87-1.22-0.673-2.678-0.726-4.372-0.159v0z" fill="#d94e28" data-fill-palette-color="secondary"></path><path d="M24.288 213.139v0c-0.911-1.553-1.37-3.195-1.376-4.926-0.004-1.725 0.408-3.342 1.235-4.851 0.821-1.505 2.002-2.71 3.543-3.614v0c1.553-0.911 3.184-1.355 4.892-1.333 1.709 0.022 3.315 0.455 4.82 1.3 1.513 0.848 2.725 2.048 3.636 3.601v0c0.924 1.576 1.384 3.226 1.378 4.949 0 1.719-0.409 3.327-1.228 4.823-0.815 1.502-1.999 2.708-3.552 3.619v0c-1.541 0.904-3.169 1.347-4.884 1.329-1.717-0.009-3.326-0.433-4.826-1.273-1.501-0.839-2.713-2.047-3.638-3.624zM27.027 211.533v0c0.611 1.041 1.417 1.83 2.421 2.367 1.001 0.547 2.072 0.821 3.214 0.823 1.142 0.002 2.234-0.302 3.275-0.912v0c1.035-0.607 1.831-1.41 2.387-2.408 0.556-0.998 0.842-2.069 0.859-3.212 0.021-1.138-0.274-2.227-0.885-3.268v0c-0.607-1.035-1.414-1.824-2.42-2.368-1.003-0.537-2.077-0.81-3.223-0.818-1.142-0.002-2.231 0.3-3.266 0.907v0c-1.041 0.611-1.839 1.415-2.396 2.414-0.552 1.004-0.836 2.073-0.851 3.207-0.017 1.143 0.278 2.233 0.885 3.268z" fill="#d94e28" data-fill-palette-color="secondary"></path><path d="M38.041 231.157l-2.343-2.419 13.41-12.989 2.167 2.237-1.925 1.865c1.205-0.219 2.355-0.127 3.45 0.277 1.095 0.394 2.046 1.008 2.853 1.84v0c0.882 0.91 1.478 1.952 1.788 3.126 0.31 1.173 0.308 2.358-0.006 3.554v0c1.311-0.256 2.566-0.167 3.765 0.268 1.209 0.434 2.261 1.114 3.157 2.038v0c0.98 1.012 1.639 2.172 1.976 3.479 0.342 1.302 0.325 2.618-0.048 3.947-0.374 1.329-1.142 2.557-2.305 3.683v0l-7.932 7.683-2.336-2.411 7.641-7.403c1.22-1.182 1.812-2.427 1.776-3.733-0.041-1.312-0.5-2.421-1.377-3.327v0c-0.549-0.567-1.207-0.99-1.975-1.268-0.763-0.284-1.578-0.335-2.444-0.154-0.856 0.182-1.718 0.693-2.585 1.533v0l-7.707 7.465-2.336-2.411 7.642-7.403c0.847-0.821 1.385-1.666 1.614-2.535 0.228-0.869 0.223-1.703-0.018-2.503-0.235-0.795-0.627-1.476-1.176-2.043v0c-0.535-0.552-1.186-0.968-1.954-1.247-0.763-0.284-1.58-0.337-2.451-0.161-0.861 0.177-1.732 0.692-2.613 1.547v0z" fill="#d94e28" data-fill-palette-color="secondary"></path><path d="M72.274 260.557v0c-1.664-1.014-2.928-2.294-3.794-3.841-0.866-1.546-1.284-3.191-1.256-4.935 0.032-1.749 0.527-3.41 1.485-4.981v0c0.919-1.508 2.117-2.657 3.594-3.448 1.473-0.784 3.046-1.163 4.72-1.137 1.678 0.02 3.259 0.483 4.745 1.388v0c1.474 0.898 2.607 2.071 3.399 3.517 0.796 1.441 1.193 2.978 1.192 4.612 0.002 1.628-0.454 3.193-1.37 4.696v0l-0.711 1.165-10.406-6.343c-0.461-0.281-0.919-0.584-1.376-0.91-0.463-0.329-0.903-0.669-1.321-1.018v0c-0.668 1.536-0.749 3.113-0.243 4.731 0.511 1.622 1.518 2.892 3.021 3.808v0c1.007 0.614 2.086 0.956 3.236 1.025 1.15 0.069 2.221-0.114 3.214-0.551v0l-1.195 3.748c-1.139 0.159-2.306 0.11-3.501-0.144-1.189-0.251-2.334-0.712-3.433-1.382zM72.282 247.331v0c1.05 0.427 2.065 0.939 3.043 1.536v0l5.285 3.221c0.386 0.235 0.762 0.48 1.128 0.735 0.368 0.264 0.735 0.531 1.099 0.8v0c0.507-1.389 0.511-2.788 0.012-4.197-0.499-1.41-1.379-2.499-2.639-3.267v0c-1.29-0.786-2.682-1.047-4.179-0.782-1.502 0.261-2.752 0.913-3.749 1.954z" fill="#d94e28" data-fill-palette-color="secondary"></path><path d="M103.086 273.678l-3.225-0.97 5.378-17.878 2.983 0.897-0.988 3.283c0.949-0.862 2.044-1.448 3.285-1.758 1.241-0.31 2.588-0.246 4.04 0.191v0l-0.163 3.457c-0.34-0.229-0.758-0.418-1.255-0.567v0c-1.672-0.503-3.174-0.377-4.506 0.376-1.328 0.762-2.287 2.125-2.877 4.088v0z" fill="#d94e28" data-fill-palette-color="secondary"></path><path d="M126.286 278.469v0c-1.932-0.25-3.609-0.904-5.029-1.965-1.42-1.06-2.472-2.393-3.155-3.997-0.683-1.611-0.906-3.329-0.67-5.155v0c0.226-1.752 0.853-3.289 1.88-4.611 1.026-1.315 2.31-2.302 3.85-2.96 1.541-0.664 3.174-0.885 4.898-0.662v0c1.712 0.221 3.224 0.831 4.536 1.83 1.313 0.992 2.302 2.235 2.966 3.727 0.665 1.486 0.884 3.102 0.659 4.847v0l-0.175 1.355-12.086-1.561c-0.535-0.069-1.077-0.16-1.628-0.271-0.557-0.113-1.097-0.244-1.621-0.393v0c0.015 1.674 0.583 3.148 1.703 4.421 1.127 1.274 2.563 2.024 4.309 2.249v0c1.17 0.151 2.295 0.024 3.373-0.38 1.079-0.405 1.983-1.008 2.712-1.812v0l0.433 3.911c-0.976 0.608-2.061 1.039-3.257 1.292-1.189 0.254-2.421 0.299-3.698 0.135zM120.912 266.384v0c1.133-0.037 2.268 0.018 3.405 0.165v0l6.138 0.792c0.448 0.058 0.891 0.129 1.329 0.213 0.444 0.091 0.887 0.186 1.33 0.284v0c-0.102-1.475-0.667-2.754-1.697-3.84-1.029-1.085-2.276-1.722-3.74-1.91v0c-1.498-0.193-2.876 0.135-4.135 0.985-1.265 0.85-2.142 1.953-2.63 3.311z" fill="#d94e28" data-fill-palette-color="secondary"></path><path d="M148.491 279.32v0c-0.95 0.037-1.978-0.105-3.084-0.427-1.099-0.322-2.059-0.892-2.88-1.71v0l0.788-3.705c0.617 0.954 1.392 1.697 2.323 2.228 0.938 0.537 1.926 0.786 2.964 0.745v0c0.99-0.038 1.725-0.31 2.205-0.814 0.479-0.511 0.706-1.117 0.679-1.817v0c-0.031-0.808-0.32-1.391-0.868-1.748-0.54-0.35-1.018-0.588-1.434-0.714v0l-2.564-0.872c-0.459-0.171-1.018-0.423-1.679-0.755-0.654-0.339-1.234-0.843-1.739-1.511-0.505-0.662-0.778-1.542-0.821-2.64v0c-0.039-0.997 0.165-1.919 0.611-2.767 0.446-0.847 1.094-1.53 1.945-2.049 0.85-0.526 1.868-0.811 3.054-0.857v0c0.93-0.036 1.91 0.095 2.94 0.392 1.03 0.291 1.911 0.817 2.642 1.578v0l-0.787 3.704c-0.534-0.897-1.236-1.598-2.106-2.104-0.87-0.506-1.763-0.741-2.679-0.706v0c-0.849 0.033-1.507 0.298-1.973 0.795-0.467 0.497-0.688 1.056-0.664 1.675v0c0.019 0.499 0.202 0.94 0.547 1.325 0.345 0.378 0.856 0.679 1.533 0.902v0l2.554 0.863c0.458 0.151 1.031 0.399 1.719 0.743 0.688 0.351 1.305 0.867 1.851 1.548 0.546 0.687 0.843 1.631 0.889 2.829v0c0.065 1.678-0.468 3.058-1.6 4.141-1.125 1.083-2.581 1.659-4.366 1.728z" fill="#d94e28" data-fill-palette-color="secondary"></path><path d="M168.874 276.35l-3.301 0.615-2.908-15.599-4.166 0.777-0.513-2.754 4.255-0.793-1.14-6.115 3.122-0.582 1.14 6.115 4.553-0.849 0.514 2.754-4.464 0.832z" fill="#d94e28" data-fill-palette-color="secondary"></path><path d="M188.651 270.744v0c-1.601 0.57-3.213 0.686-4.836 0.347-1.617-0.34-3.062-1.053-4.336-2.138-1.28-1.083-2.216-2.456-2.809-4.121v0c-0.59-1.658-0.733-3.314-0.427-4.968 0.301-1.646 0.971-3.112 2.009-4.398 1.047-1.282 2.37-2.207 3.971-2.777v0c1.213-0.432 2.43-0.611 3.652-0.538 1.225 0.065 2.371 0.358 3.437 0.88v0l-0.824-2.315 2.925-1.041 6.262 17.588-2.925 1.041-0.825-2.315c-0.503 1.059-1.207 2.008-2.111 2.845-0.896 0.841-1.95 1.478-3.163 1.91zM188.036 267.72v0c1.112-0.396 2.022-1.035 2.732-1.917 0.712-0.876 1.172-1.874 1.382-2.993 0.203-1.117 0.103-2.244-0.303-3.381v0c-0.403-1.131-1.036-2.065-1.899-2.802-0.87-0.735-1.859-1.22-2.966-1.456-1.107-0.236-2.217-0.155-3.328 0.24v0c-1.112 0.396-2.022 1.035-2.732 1.917-0.709 0.882-1.169 1.883-1.378 3.003-0.21 1.12-0.113 2.245 0.289 3.375v0c0.405 1.137 1.042 2.073 1.912 2.808 0.87 0.735 1.858 1.217 2.963 1.447 1.107 0.236 2.217 0.155 3.328-0.241z" fill="#d94e28" data-fill-palette-color="secondary"></path><path d="M213.223 259.012v0c-1.122 0.672-2.34 1.021-3.653 1.045-1.314 0.025-2.593-0.313-3.838-1.013-1.248-0.706-2.32-1.805-3.213-3.298v0l-5.52-9.213 2.889-1.731 5.275 8.806c0.759 1.267 1.805 2.161 3.14 2.681 1.336 0.512 2.69 0.357 4.06-0.464v0c1.122-0.672 1.88-1.677 2.274-3.012 0.394-1.336 0.134-2.768-0.781-4.295v0l-5.328-8.893 2.881-1.725 9.595 16.014-2.664 1.596-1.549-2.585c-0.025 1.296-0.354 2.472-0.987 3.527-0.639 1.059-1.499 1.912-2.581 2.56z" fill="#d94e28" data-fill-palette-color="secondary"></path><path d="M231.496 245.256l-2.55 2.2-12.194-14.137 2.359-2.034 2.239 2.596c-0.217-1.264-0.124-2.502 0.281-3.715 0.405-1.213 1.182-2.315 2.331-3.306v0l2.828 1.994c-0.375 0.164-0.76 0.415-1.152 0.754v0c-1.322 1.141-2.023 2.475-2.103 4.004-0.07 1.529 0.565 3.07 1.904 4.622v0z" fill="#d94e28" data-fill-palette-color="secondary"></path><path d="M247.325 228.867v0c-1.088 1.305-2.417 2.225-3.986 2.76-1.565 0.53-3.172 0.651-4.821 0.365-1.653-0.281-3.158-0.987-4.515-2.118v0c-1.352-1.127-2.317-2.48-2.896-4.06-0.578-1.57-0.747-3.173-0.508-4.808 0.249-1.636 0.917-3.106 2.006-4.411v0c0.825-0.989 1.781-1.763 2.87-2.321 1.088-0.568 2.224-0.898 3.407-0.992v0l-1.888-1.573 1.988-2.385 14.34 11.955-1.988 2.385-1.888-1.574c0.106 1.168-0.017 2.342-0.37 3.523-0.343 1.18-0.927 2.265-1.751 3.254zM245.257 226.577v0c0.756-0.906 1.214-1.92 1.376-3.04 0.167-1.116 0.056-2.209-0.333-3.28-0.393-1.065-1.054-1.984-1.981-2.757v0c-0.922-0.769-1.942-1.25-3.06-1.446-1.123-0.19-2.221-0.105-3.295 0.256-1.073 0.361-1.987 0.994-2.743 1.9v0c-0.756 0.906-1.214 1.92-1.375 3.04-0.162 1.12-0.048 2.216 0.341 3.287 0.389 1.071 1.045 1.99 1.966 2.758v0c0.927 0.773 1.952 1.254 3.075 1.445 1.123 0.19 2.219 0.103 3.286-0.263 1.073-0.361 1.987-0.994 2.743-1.9z" fill="#d94e28" data-fill-palette-color="secondary"></path><path d="M260.387 209.394l-1.606 2.96-16.408-8.905 1.485-2.738 2.658 1.443c-0.641-1.123-0.956-2.302-0.944-3.539 0.002-1.234 0.306-2.408 0.91-3.522v0c0.634-1.167 1.508-2.093 2.623-2.777 1.112-0.678 2.379-1.033 3.801-1.067 1.419-0.028 2.905 0.38 4.457 1.223v0l9.431 5.118-1.602 2.951-9.022-4.896c-1.292-0.701-2.646-0.934-4.063-0.698-1.414 0.23-2.502 1.047-3.263 2.452v0c-0.624 1.15-0.766 2.4-0.425 3.751 0.341 1.351 1.296 2.453 2.866 3.304v0z" fill="#d94e28" data-fill-palette-color="secondary"></path><path d="M271.906 182.995l-1.053 3.188-15.067-4.977-1.329 4.024-2.66-0.879 1.357-4.11-5.906-1.95 0.996-3.016 5.906 1.951 1.453-4.398 2.66 0.878-1.424 4.312z" fill="#d94e28" data-fill-palette-color="secondary"></path></g></svg></g></svg></g></svg></g></svg></g><defs></defs></svg><rect width="280" height="280" fill="none" stroke="none" visibility="hidden"></rect></g></svg></g></svg>